<?xml version="1.0" encoding="utf-8"?>
<!-- Generator: Adobe Illustrator 25.4.1, SVG Export Plug-In . SVG Version: 6.00 Build 0)  -->
<svg version="1.1" id="freepik_stories-share-link" xmlns:svgjs="http://svgjs.com/svgjs"
	 xmlns="http://www.w3.org/2000/svg" xmlns:xlink="http://www.w3.org/1999/xlink" x="0px" y="0px" viewBox="0 0 500 500"
	 style="enable-background:new 0 0 500 500;" xml:space="preserve">
<style type="text/css">
	.st0{opacity:0.7;fill:#FFFFFF;enable-background:new    ;}
	.st1{opacity:0.2;enable-background:new    ;}
	.st2{opacity:0.1;enable-background:new    ;}
	.st3{fill:#263238;stroke:#263238;stroke-miterlimit:10;}
	.st4{fill:none;stroke:#263238;stroke-miterlimit:10;}
	.st5{fill:#FFFFFF;stroke:#263238;stroke-miterlimit:10;}
	.st6{fill:#263238;stroke:#263238;stroke-linecap:round;stroke-linejoin:round;}
	.st7{fill:none;stroke:#828282;stroke-linecap:round;stroke-linejoin:round;}
	.st8{stroke:#263238;stroke-linecap:round;stroke-linejoin:round;}
	.st9{fill:none;stroke:#263238;stroke-linecap:round;stroke-linejoin:round;}
	.st10{fill:#FFFFFF;stroke:#263238;stroke-linecap:round;stroke-linejoin:round;}
	.st11{fill:none;stroke:#263238;stroke-width:2;stroke-linecap:round;stroke-linejoin:round;}
	.st12{fill:none;stroke:#263238;stroke-linecap:round;stroke-miterlimit:10;}
	.st13{fill:#263238;}
	.st14{fill:#C2C2C2;stroke:#263238;stroke-linecap:round;stroke-linejoin:round;}
	.st15{fill:#707070;stroke:#263238;stroke-linecap:round;stroke-linejoin:round;}
	.st16{fill:#707070;}
	.st17{fill:#272430;}
	.st18{fill:#6E7180;}
	.st19{clip-path:url(#SVGID_00000178902893902108173620000010142275676028174992_);fill:#E9DECC;}
	.st20{clip-path:url(#SVGID_00000031894352172285714010000009218171862662882198_);fill:#5E4E47;}
	.st21{clip-path:url(#SVGID_00000008123687889494330920000006233229233591335352_);fill:#CFA984;}
	.st22{clip-path:url(#SVGID_00000175320453821668926670000011914969221140166304_);fill:#AB8787;}
	.st23{enable-background:new    ;}
</style>
<g id="freepik--background-simple--inject-7">
	<path id="el3tsf7tjcp07" d="M469.9,316.4c-14.7,39.4-44.8,82.1-87.1,94.8c-64,19.1-71.6,70.6-186.2,65.9
		c-16.7-0.6-33.4-3.1-49.6-7.3c-7.9-2.1-15.7-4.7-23.3-7.8C56.8,434.9,21.9,375.2,19,312.8c-3.8-82.1,53.5-121.2,90.7-144.1
		S191.8,57,304.4,60.8c17.2,0.5,34.3,3,50.9,7.4c37.9,10.3,76.4,33,98.8,66.1c1.7,2.5,3.3,5,4.8,7.6
		C489,192.8,489.9,262.6,469.9,316.4z"/>
	<g id="elpnnmk83d5g">
		<path id="el0mzsdagr6sy" class="st0" d="M469.9,316.4c-14.7,39.4-44.8,82.1-87.1,94.8c-64,19.1-71.6,70.6-186.2,65.9
			c-16.7-0.6-33.4-3.1-49.6-7.3c-7.9-2.1-15.7-4.7-23.3-7.8C56.8,434.9,21.9,375.2,19,312.8c-3.8-82.1,53.5-121.2,90.7-144.1
			S191.8,57,304.4,60.8c17.2,0.5,34.3,3,50.9,7.4c37.9,10.3,76.4,33,98.8,66.1c1.7,2.5,3.3,5,4.8,7.6
			C489,192.8,489.9,262.6,469.9,316.4z"/>
	</g>
</g>
<g id="freepik--Bricks--inject-7">
	<g id="elxro4upe1tb">
		<rect id="elbxmyzeoc7m" x="408" y="343.3" class="st1" width="42" height="17"/>
	</g>
	<g id="eltq6g87bwtl">
		<rect id="el7xic0nv8k0s" x="404" y="191.8" class="st1" width="42" height="17"/>
	</g>
	<g id="elujetfq3tz8">
		<rect id="el9ahsz5s9es" x="252" y="251.8" class="st1" width="42" height="17"/>
	</g>
	<g id="elfx4u29uhk4">
		<rect id="elq5al9oy9u3q" x="272" y="152.5" class="st1" width="42" height="17"/>
	</g>
	<g id="elfhkze0wdvtc">
		<rect id="elcnxdrntxqsm" x="359" y="133.5" class="st1" width="42" height="17"/>
	</g>
	<g id="elhvqng5hv9n8">
		<rect id="el4hyz5leynfd" x="61" y="337.5" class="st1" width="42" height="17"/>
	</g>
	<g id="elvq87exw6nd9">
		<rect id="elsk13ev2op7" x="158" y="398.5" class="st1" width="42" height="17"/>
	</g>
	<g id="el0nygjf277cz">
		<rect id="el5qocp9othua" x="381" y="215.3" class="st2" width="42" height="17"/>
	</g>
	<g id="el5hpfcehyv8a">
		<rect id="elo2f9xmgvy2j" x="337" y="309.8" class="st2" width="42" height="17"/>
	</g>
	<g id="elxkt3wrrkvv">
		<rect id="ellmgy4ss0goj" x="36" y="310.8" class="st2" width="42" height="17"/>
	</g>
	<g id="elqkl6rigvd8c">
		<rect id="el2zynud07fh7" x="246" y="336.8" class="st2" width="42" height="17"/>
	</g>
	<g id="el0krvu0ywm9s">
		<rect id="elwrwayvjegc9" x="250" y="312.8" class="st2" width="42" height="17"/>
	</g>
	<g id="elnojnlq9kw6b">
		<rect id="el0t8c4g52fzah" x="429" y="215.3" class="st2" width="42" height="17"/>
	</g>
	<g id="elt0ttbxv9mas">
		<rect id="el33wf5wt53or" x="304" y="396.8" class="st1" width="42" height="17"/>
	</g>
	<g id="eleq2jfi4e79w">
		<rect id="ell4p5n0oqt3n" x="281" y="420.3" class="st2" width="42" height="17"/>
	</g>
	<g id="elc7ef2l24her">
		<rect id="el6n3hmqteg7l" x="329" y="420.3" class="st2" width="42" height="17"/>
	</g>
	<g id="elj47v4sxwhq">
		<rect id="el8hyhbx8tqg7" x="100.4" y="185.2" class="st1" width="42" height="17"/>
	</g>
	<g id="elzul0iq9567">
		<rect id="elpi4p6qn0z2" x="77.4" y="208.7" class="st2" width="42" height="17"/>
	</g>
	<g id="el11ggnfy9bi1">
		<rect id="eliia6bz2j7wr" x="125.4" y="208.7" class="st2" width="42" height="17"/>
	</g>
	<g id="elq20okv3fr8">
		<rect id="el2uqsq7s140j" x="84" y="311.8" class="st1" width="42" height="17"/>
	</g>
	<g id="el6hy730lzvho">
		<rect id="elsaq94k5lg2" x="270" y="230.5" class="st2" width="42" height="17"/>
	</g>
	<g id="eltmibefd9gg8">
		<rect id="elctb70l7se4" x="207" y="397.5" class="st2" width="42" height="17"/>
	</g>
	<g id="elku0s0ckulr">
		<rect id="ell1vvffaccvr" x="337" y="112.5" class="st2" width="42" height="17"/>
	</g>
	<g id="eldnkrkz8sz9o">
		<rect id="el5utmjo5ern3" x="60" y="255.5" class="st1" width="42" height="17"/>
	</g>
	<g id="ely40fmjesi1">
		<rect id="el268hhze2f57" x="84" y="234.5" class="st2" width="42" height="17"/>
	</g>
	<g id="el8q69km7oc6v">
		<rect id="elbrj96ne3rtf" x="191" y="147.3" class="st2" width="42" height="17"/>
	</g>
	<g id="elcvozigk1lqn">
		<rect id="elvlmxv3k6k7" x="337" y="252.3" class="st1" width="42" height="17"/>
	</g>
	<g id="elr551fwnnui">
		<rect id="el1njylhki0jm" x="306.4" y="343.2" class="st1" width="42" height="17"/>
	</g>
	<g id="el3hjaefspvec">
		<rect id="elctyolp4jcrb" x="99" y="116.5" class="st2" width="42" height="17"/>
	</g>
	<g id="eloor8m2q0lyr">
		<rect id="el7hugbk04g6j" x="147" y="116.5" class="st2" width="42" height="17"/>
	</g>
	<g id="el2lhizbzxw0y">
		<rect id="elqec6ax27dnr" x="332" y="365.5" class="st2" width="42" height="17"/>
	</g>
	<g id="elj1rdfvq8y6s">
		<rect id="elhca9brrtwy8" x="33" y="169.5" class="st2" width="42" height="17"/>
	</g>
	<g id="elst6zrlf9xjb">
		<rect id="ellyt60svgm99" x="358.4" y="343.7" class="st1" width="42" height="17"/>
	</g>
	<g id="elzt6m6etc368">
		<rect id="el0l8umsqlcc1" x="327" y="147.3" class="st2" width="42" height="17"/>
	</g>
	<g id="el9oon6ajp7bv">
		<rect id="elwo9r2qy7ew" x="235" y="116.5" class="st2" width="42" height="17"/>
	</g>
	<g id="eli8y9j4y2b3f">
		<rect id="elrbwp8qs3cx" x="283" y="116.5" class="st2" width="42" height="17"/>
	</g>
</g>
<g id="freepik--Plant--inject-7">
	<path id="elf3k6vhjvefl" class="st3" d="M67.2,162.1c3.7-3.7,10.4-2.9,10.4-2.9s0.7,6.7-3,10.4s-10.4,2.9-10.4,2.9
		S63.5,165.8,67.2,162.1z"/>
	<path id="el800hrfvzco7" class="st3" d="M71.9,150c4.6,2.5,5.7,9.2,5.7,9.2s-6.2,2.6-10.8,0s-5.7-9.2-5.7-9.2S67.3,147.5,71.9,150z
		"/>
	<line id="el0xi4u8hci8f" class="st4" x1="85" y1="35.8" x2="85" y2="168.6"/>
	<path id="el4shqrcuuofb" class="st3" d="M86.7,153.3c-2.4,4.6-9.1,5.9-9.1,5.9s-2.7-6.2-0.2-10.8s9.1-5.9,9.1-5.9
		S89.1,148.7,86.7,153.3z"/>
	<path id="eln5q5ky2rz7c" class="st3" d="M80.5,169.6c-3.7-3.7-2.9-10.4-2.9-10.4s6.7-0.7,10.4,3s2.9,10.4,2.9,10.4
		S84.2,173.3,80.5,169.6z"/>
	<path id="elhib7508st9u" class="st3" d="M89.7,163.6c4.9-1.7,10.6,1.9,10.6,1.9s-2.3,6.4-7.2,8s-10.6-1.9-10.6-1.9
		S84.8,165.3,89.7,163.6z"/>
	<path id="el1knns619rrj" class="st3" d="M99.2,154.8c3,4.2,1.2,10.8,1.2,10.8s-6.7-0.4-9.8-4.6s-1.2-10.8-1.2-10.8
		S96.2,150.6,99.2,154.8z"/>
	<path id="el9gz7npqz27h" class="st3" d="M111.1,164.2c-4.2,3.1-10.7,1.4-10.7,1.4s0.3-6.8,4.5-9.9s10.7-1.4,10.7-1.4
		S115.3,161.1,111.1,164.2z"/>
	<path id="elhdm6x6ut82" class="st3" d="M98.5,176.2c-1.7-4.9,1.9-10.6,1.9-10.6s6.4,2.3,8.1,7.2s-1.9,10.6-1.9,10.6
		S100.2,181.1,98.5,176.2z"/>
	<path id="el0cibxihgltpf" class="st3" d="M55.9,162.8c4.5,1.7,6.5,7.6,6.5,7.6s-5.4,3.2-9.9,1.5s-6.5-7.6-6.5-7.6
		S51.4,161.1,55.9,162.8z"/>
	<path id="el9921hd240gm" class="st3" d="M67.9,162.1c-0.3,4.8-5.5,8.4-5.5,8.4s-4.6-4.2-4.2-9.1s5.5-8.4,5.5-8.4
		S68.2,157.3,67.9,162.1z"/>
	<path id="elyqvgkufnjv" class="st3" d="M70.8,175.8c-4.8-0.3-8.5-5.3-8.5-5.3s4.2-4.6,9-4.4s8.4,5.3,8.4,5.3S75.7,176,70.8,175.8z"
		/>
	<path id="elzt6vpc90kmd" class="st3" d="M54.8,176.9c1.7-4.5,7.6-6.5,7.6-6.5s3.2,5.4,1.5,9.9s-7.6,6.5-7.6,6.5
		S53.1,181.5,54.8,176.9z"/>
	<path id="eleqkc7ulvdbv" d="M98.2,168.1c4.9-1.7,10.6,1.9,10.6,1.9s-2.3,6.4-7.2,8S91,176.2,91,176.2S93.2,169.8,98.2,168.1z"/>
	<path id="elwi1f62gru9" d="M107.7,159.3c3,4.2,1.2,10.8,1.2,10.8s-6.8-0.4-9.8-4.6s-1.2-10.8-1.2-10.8S104.6,155.1,107.7,159.3z"/>
	<path id="elckw062aexdb" d="M119.5,168.7c-4.2,3.1-10.7,1.4-10.7,1.4s0.3-6.8,4.5-9.9s10.7-1.4,10.7-1.4S123.7,165.6,119.5,168.7z"
		/>
	<path id="elpdp36n76qxj" d="M106.9,180.7c-1.7-4.9,1.9-10.6,1.9-10.6s6.4,2.3,8.1,7.2s-1.9,10.6-1.9,10.6S108.6,185.6,106.9,180.7z
		"/>
	<path id="elqi9vjy93hun" class="st3" d="M82.4,206c2.8,0.1,5.3,1.6,6.8,3.9c1.4,2.6,2.2,5.5,2.3,8.5
		C91.4,218.4,81.8,217.2,82.4,206z"/>
	<path id="elhk16bjgbjgj" class="st3" d="M85.8,229.1c2.8,0.1,5.3,1.6,6.8,3.9c1.4,2.6,2.2,5.5,2.2,8.5
		C94.8,241.5,85.2,240.3,85.8,229.1z"/>
	<path id="elg5bph8rnvr" class="st3" d="M93.1,252.2c2.8,0.1,5.3,1.6,6.8,3.9c1.4,2.6,2.2,5.5,2.2,8.5
		C102.1,264.6,92.5,263.5,93.1,252.2z"/>
	<path id="elxjsxgfbwvd9" class="st3" d="M81.5,216c1.7,2.2,2.1,5.1,1.2,7.7c-1.1,2.7-2.9,5.2-5.1,7.1
		C77.6,230.8,72.4,222.7,81.5,216z"/>
	<path id="elf1tr72kffct" class="st3" d="M88.5,243.3c1.7,2.2,2.1,5.1,1.2,7.7c-1.1,2.7-2.9,5.2-5.1,7.1
		C84.6,258.2,79.4,250,88.5,243.3z"/>
	<path id="el597tpkcew5v" class="st4" d="M81.3,200.9c0,0-0.6,33.3,14.7,57"/>
	<path id="elgsd39cznzc5" class="st3" d="M114.3,187.8c-2.4,0.1-4.6,1.4-5.8,3.4c-1.2,2.2-1.9,4.7-1.9,7.3
		C106.5,198.5,114.8,197.5,114.3,187.8z"/>
	<path id="elugumem7jew" class="st3" d="M111.4,207.7c-2.4,0.1-4.6,1.4-5.8,3.4c-1.2,2.2-1.9,4.7-1.9,7.3
		C103.6,218.4,111.9,217.4,111.4,207.7z"/>
	<path id="elr69h8pjof9d" class="st3" d="M105.1,227.6c-2.4,0.1-4.6,1.4-5.8,3.4c-1.2,2.2-1.9,4.7-1.9,7.3
		C97.3,238.3,105.6,237.3,105.1,227.6z"/>
	<path id="elwkic36wi6d" class="st3" d="M115.1,196.5c-1.4,1.9-1.8,4.4-1.1,6.7c1,2.3,2.5,4.4,4.4,6.1
		C118.4,209.2,122.9,202.2,115.1,196.5z"/>
	<path id="elg3c6p9i5cbe" class="st3" d="M109.1,220c-1.4,1.9-1.8,4.4-1.1,6.7c1,2.4,2.5,4.4,4.4,6.1
		C112.4,232.8,116.9,225.8,109.1,220z"/>
	<path id="elv3jl4jmj8pp" class="st4" d="M115.3,183.4c0,0,0.5,28.7-12.6,49.1"/>
	<path id="el5nqz4r2ulhh" class="st5" d="M45.8,172.1c3.4,18.9,19.9,32.7,39.2,32.7l0,0c19.2,0,35.7-13.8,39.1-32.7L45.8,172.1z"/>
	<path id="elgz1qp3vk48r" class="st4" d="M102.7,169.3c-0.6,13.6-2.3,27.1-5.1,40.4c-4.5,20.9-4,31.3,0,46.9s0.6,23.5-1.7,31.9
		s-4.5,15.6-4.5,15.6"/>
	<path id="eldi42lpu7ocq" d="M101.6,183c0,0-6.8,5.2-7.3,10.4c-0.3,3.3-0.1,6.6,0.6,9.8C94.8,203.2,103.3,200.6,101.6,183z"/>
	<path id="el6snf1lpktzn" d="M96,217.5c0,0-6.8,5.2-7.3,10.4c-0.3,3.3-0.1,6.6,0.6,9.8C89.2,237.7,97.7,235.1,96,217.5z"/>
	<path id="elf3i13he5td" d="M97.1,257.9c0,0-6.8,5.2-7.3,10.4c-0.3,3.3-0.1,6.6,0.6,9.8C90.3,278.1,98.8,275.5,97.1,257.9z"/>
	<path id="el1esr47vfnrc" d="M93.7,295.7c0,0-6.8,5.2-7.3,10.4c-0.3,3.3-0.1,6.6,0.6,9.8C86.9,315.9,95.4,313.3,93.7,295.7z"/>
	<path id="elk014odv28k" d="M102.7,180.4c2.9,0.2,5.5,1.9,6.8,4.6c1.4,3.1,2.2,6.4,2.2,9.8C111.8,194.7,102.2,193.4,102.7,180.4z"/>
	<path id="el4xtvvbe208d" d="M98.8,209c2.9,0.2,5.5,1.9,6.8,4.6c1.4,3.1,2.2,6.4,2.3,9.8C107.8,223.3,98.2,222.1,98.8,209z"/>
	<path id="el59e3quqrbnf" d="M96,241c2.9,0.2,5.5,1.9,6.8,4.6c1.4,3.1,2.2,6.4,2.3,9.8C105,255.3,95.4,254,96,241z"/>
	<path id="el21i91y54p46" d="M99.3,276.2c2.9,0.2,5.5,1.9,6.8,4.6c1.4,3.1,2.2,6.4,2.3,9.8C108.4,290.5,98.8,289.2,99.3,276.2z"/>
	<path id="elh7anwn3yug" class="st4" d="M67.3,171.8c0,0-4.6,6.6-4.6,17.3s10.1,23.7,9,37.2s-3.4,18-3.4,31s1.7,18.1,1.7,18.1"/>
	<path id="el79jjcyvtk2" d="M61.6,185.6c0,0-6.8,0-8.5,4.5c-1,2.3-1.5,4.8-1.7,7.3c0,0,5.1-0.6,6.8-3.4
		C59.6,191.4,60.7,188.6,61.6,185.6z"/>
	<path id="elholj6a091dw" d="M65.5,202.6c0,0-6.8,4.5-7.3,9c-0.3,2.8-0.1,5.7,0.6,8.5C58.8,220,67.2,217.8,65.5,202.6z"/>
	<path id="eldublg2fbip" d="M67.8,254.4c0,0-6.8,4.5-7.3,9c-0.3,2.8-0.1,5.7,0.6,8.5C61,271.9,69.5,269.7,67.8,254.4z"/>
	<path id="elt3kq18r8pg" d="M70.6,230.2c0,0-6.8,4.5-7.3,9c-0.3,2.8-0.1,5.7,0.6,8.5C63.8,247.7,72.3,245.4,70.6,230.2z"/>
	<path id="elqv0bbhw82a" d="M62.7,189c2.8,0.1,5.3,1.6,6.8,4c1.4,2.6,2.2,5.5,2.3,8.4C71.7,201.4,62.1,200.3,62.7,189z"/>
	<path id="el6esgmijtuxx" d="M69.5,244.9c2.8,0.1,5.3,1.6,6.8,3.9c1.4,2.6,2.2,5.5,2.2,8.5C78.5,257.3,68.9,256.1,69.5,244.9z"/>
	<path id="el30nmby54xap" d="M69.5,275.9c2.8,0.1,5.3,1.6,6.8,4c1.4,2.6,2.2,5.5,2.2,8.5C78.5,288.3,68.9,287.1,69.5,275.9z"/>
	<path id="el8rz8vpdq3s" d="M71.2,215.5c2.8,0.1,5.3,1.6,6.8,3.9c1.4,2.6,2.2,5.5,2.2,8.5C80.2,227.9,70.6,226.8,71.2,215.5z"/>
	<path id="elvxtohjs1dqg" d="M63.1,157.6c3.6,3.8,2.6,10.5,2.6,10.5s-6.7,0.5-10.3-3.3s-2.6-10.5-2.6-10.5S59.5,153.8,63.1,157.6z"
		/>
	<path id="elhn311n7xc5m" d="M75.1,162.6c-2.6,4.5-9.3,5.5-9.3,5.5s-2.4-6.3,0.2-10.8s9.3-5.5,9.3-5.5S77.7,158.1,75.1,162.6z"/>
	<path id="elxspuli2lrte" d="M71.4,177.3c-4.6-2.6-5.7-9.2-5.7-9.2s6.3-2.5,10.8,0s5.7,9.2,5.7,9.2S75.9,179.9,71.4,177.3z"/>
	<path id="elxk3recad68p" d="M55.2,170.7c3.8-3.6,10.5-2.6,10.5-2.6s0.5,6.7-3.2,10.3S52,181,52,181S51.5,174.3,55.2,170.7z"/>
	<path id="elgu99v6jifc" d="M81.8,169c3.7-3.7,10.4-2.9,10.4-2.9s0.7,6.7-3,10.4s-10.4,2.9-10.4,2.9S78.1,172.7,81.8,169z"/>
	<path id="el0v8wssma99r" d="M86.5,157c4.6,2.5,5.7,9.2,5.7,9.2s-6.2,2.6-10.8,0s-5.7-9.2-5.7-9.2S81.9,154.5,86.5,157z"/>
	<path id="elgqho3005fu" d="M101.3,160.3c-2.4,4.6-9.1,5.9-9.1,5.9s-2.7-6.2-0.2-10.8s9.1-5.9,9.1-5.9S103.7,155.7,101.3,160.3z"/>
	<path id="elzj2ck1axr7b" d="M95.1,176.6c-3.7-3.7-2.9-10.4-2.9-10.4s6.7-0.7,10.4,3s2.9,10.4,2.9,10.4S98.8,180.3,95.1,176.6z"/>
	<polyline id="el2vqe5kb9ah3" class="st4" points="45.8,172.1 85,35.8 124.1,172.1 	"/>
	<rect id="elzpegq3f445i" x="79.8" y="29" class="st5" width="10.4" height="13.5"/>
</g>
<g id="freepik--Character--inject-7">
	<path id="elvkjwxt5ylsj" class="st6" d="M213.2,190.9c0,0-17.7-4-30.5,2.8s-14.5,16.5-18.1,29.7s-12.1,27.3-19.7,39
		s4.8,28.5,24.1,35.4s52.6,6,67.5-2.8s10-24.1,6.4-36.2s-5.6-19.3-5.6-23.3s7.6-6.7,2.4-22.9C235.7,200.1,223.6,188.4,213.2,190.9z"
		/>
	<path id="elti831kpv0hr" class="st7" d="M166.5,243.1c-3.3,1.3-5.4,1.9-5.4,1.9"/>
	<path id="elhr1yl3kvhv" class="st7" d="M209.6,206.4c0,0-4.7,12.3-19.5,23.5c-5.8,4.4-12.1,8.2-18.8,11.2"/>
	<path id="eldhhyusl4oj" class="st7" d="M196.3,203.3c-2.8,3.5-7.3,9.2-13.8,17.5c-12.3,15.5-15.6,18.4-21,20.2"/>
	<path id="elwtmcd5dnykf" class="st7" d="M199.8,198.8l-1.9,2.4"/>
	<path id="el25r9063xa0n" class="st7" d="M214.3,194.4c0,0,13.4,10.9,9,18.4"/>
	<path id="eld311gnjmgpu" class="st7" d="M238.5,217.5c0.7,2.2,0.5,4.5-0.4,6.6"/>
	<path id="elm98yrn85sp" class="st7" d="M221.9,201.3c0,0,10.8,5.5,15.2,12.9"/>
	<path id="el3z1egi030f8" class="st6" d="M251.9,425.9c-3.1,0.9-51.3,22.1-66,27.1c-9.2,3.1-18.7,5-28.3,5.9l7.1,14.7
		c10.5,1.8,21.2,3,31.9,3.4c44.2,1.8,72.4-4.7,94.2-14.5c-3.6-8.6-9.9-22.9-14.3-29.4C269.9,423.4,255,425,251.9,425.9z"/>
	<path id="elkwp4uw06p" class="st8" d="M232.8,436c23.8-6.6,32.8-9,44.9-2.9c-1.2-2.5-7.2-11.8-7.2-11.8
		c-10.6-2.8-45.1,5.9-72.2,16.8s-43.6,2.2-43.6,2.2s-0.3,19.6,6.5,21.2C161.3,461.4,209,442.6,232.8,436z"/>
	<path id="elcrfjxg2syhr" class="st8" d="M178.3,281.2c0,0-50.9,16.2-52.8,19.9s-19.3,71-19.3,71s6.2,8.1,9.6,10.6
		c4.7,3.2,10.9,3.2,15.6,0c5.6-3.8,13.1-18.7,13.1-18.7s10,75,10.3,76.3s5,5.9,12.4,8.1s40.8-10,59.1-15.3s33.6-7.2,40.5-8.4
		s9-4,7.8-9.6s-1.2-17.4-1.2-17.4s13.1,10.3,15.2,4.7s-9-27.4-14-48.6s-6.9-48.5-16.2-53.2s-45.8-14.9-45.8-14.9s-25.3-6.2-33.4-3.9
		"/>
	<line id="el1bgrjcjwfr" class="st9" x1="241.2" y1="331.6" x2="245.6" y2="376.4"/>
	<line id="elv2m17vsn0ta" class="st9" x1="240.4" y1="322.6" x2="240.8" y2="327.2"/>
	<path id="elhbeb69xw564" class="st9" d="M203.9,374.2c1.2,0.8,2.5,1.5,3.8,2.2"/>
	<path id="el58i1u8ubefb" class="st9" d="M184.6,356.8c5,6,10.8,11.4,17.2,16"/>
	<path id="el0gbxjm6vk1vp" class="st9" d="M190.6,368.6c5.2,4.4,10.9,8.4,16.8,11.8"/>
	<path id="elxn3wvah259" class="st9" d="M237.4,425.3c3.6,0.2,6.8,0.4,9.2,0.4"/>
	<path id="elt4pxkl0fu7" class="st9" d="M205.2,422.5c0,0,14.7,1.5,27.5,2.5"/>
	<path id="elq0uaizfvkil" class="st9" d="M183.1,424.7c0,0,20.5,4,36.7,4"/>
	<path id="elzbn3wla92vi" class="st8" d="M180.6,274.3c0,0-5.8,11.9-5.3,17.1s8.1,13.7,19.6,14.6s20.9-6.5,22.1-10
		s3.1-14.3,3.1-14.3s-14.3,3.7-25.8-2.8s-13.4-7.5-13.4-7.5L180.6,274.3z"/>
	<line id="el1oxbpugarxx" class="st9" x1="183" y1="302" x2="186.8" y2="289.8"/>
	<line id="elky8pkoz5tt" class="st9" x1="187.4" y1="288" x2="188.3" y2="284.8"/>
	<line id="el9kwex8ihyj" class="st9" x1="193.6" y1="295.4" x2="190.4" y2="305.2"/>
	<line id="el2uoh47qu1n2" class="st9" x1="177.4" y1="296.3" x2="180.3" y2="287.1"/>
	<path id="el2jrv94igqqt" class="st10" d="M221.2,215c0,0-8.4,12-18.5,16.9c-6.6,3.1-13.5,5.6-20.5,7.6c0,0-0.4,5.6-2.4,6.4
		s-4.4-2-4.4-2l-6,1.6c-1.2,1.8-1.3,4.1-0.4,6c1.6,3.2,6.4,4,6.4,4s3.2,15.7,6.8,20.5s16.4,14.5,25.7,13.2s24.5-17.3,24.9-23.3
		s1.2-18.5,1.6-24.9s1.6-10.1-1.2-14.1S221.2,215,221.2,215z"/>
	<path id="elq5svt11ncm8" class="st9" d="M193.9,252.3c0,0,4,3.6,10.4,1.2"/>
	<path id="el29okxworpzx" class="st9" d="M217.6,253.9c0,0,6,2.8,9.6,0"/>
	<path id="elgteb3lgf6to" class="st11" d="M194.3,243.9c0,0,7.6-2.4,14.1,0"/>
	<path id="elcatrbw7rsyu" class="st11" d="M217.6,244.7c0,0,9.2-1.6,12.1,1.2"/>
	<path id="el67m19q2yqxi" class="st9" d="M215.2,265.6c0,0-3.6,2.4-7.2,1.2"/>
	<path id="el5abo9yb48df" class="st9" d="M200.8,270.8c5.1,3.6,11.7,4,17.2,1.2"/>
	<path id="el19ulf54k651" class="st8" d="M286.1,397.6c-4.7-7.5-18-9-23-7.2s-10.6-0.3-10.6-0.3L237,407.2c0,0,16.8,7.5,24.9,12.5
		s14.3,4.7,21.8-3.1s5-15.6,5-15.6"/>
	<path id="elwlhf9usqw" class="st10" d="M238.5,392c0,0-4.4,7.8-2.8,13.1s14,0,18.7-8.4S243.8,383.6,238.5,392z"/>
	<path id="el3rnshn29lfy" class="st6" d="M242.3,346.1l-20.1,37.7c-0.4,0.8-0.1,1.8,0.7,2.2c0.2,0.1,0.3,0.1,0.5,0.2l19.1,2.9
		c0.6,0.1,1.3-0.2,1.6-0.7l23-36.6c0.5-0.8,0.2-1.8-0.5-2.3c-0.2-0.1-0.4-0.2-0.6-0.2l-22-4C243.3,345.1,242.6,345.5,242.3,346.1z"
		/>
	<path id="elxz902hovhw" class="st10" d="M245,398.5c0,0-11.5-5.6-13.4-8.1s-0.6-3.7-0.6-3.7s-4-1.9-5.6-4.4s1.9-3.1,1.9-3.1l20.6,4
		c0,0-10.9-4.4-13.1-4.4c-1.5,0.1-2.9-1.1-3-2.6c0-0.4,0-0.8,0.2-1.1c0.6-1.9,1.2-2.5,5.6-1.2s14.9,3.7,14.9,3.7s-0.3-2.8-1.2-3.4
		s-9.3-3.4-11.2-5.3s-0.3-3.4,1.9-3.4s16.2,5,17.4,5.9s0,8.7,0,8.7s0,7.5-1.2,11.2s-8.1,10.9-8.1,10.9"/>
	<line id="ela3hrgopeuw" class="st9" x1="231" y1="386.7" x2="246.3" y2="392.9"/>
	<line id="el18lqjpp1fjs" class="st9" x1="247.8" y1="383.3" x2="255.6" y2="388.3"/>
	<path id="el87l25n2fzad" class="st9" d="M252.5,377.7c0,0,3.7,1.6,5,3.1"/>
	<path id="elcwf4jdjkpr6" class="st6" d="M147,423.6v46.1c-7.9-2.1-15.7-4.7-23.3-7.8v-38.4H147z"/>
	<path id="elltspth7clh" class="st6" d="M123,398.2h24.4c4,0,7.3,3.3,7.3,7.3v16.8c0,4-3.3,7.3-7.3,7.3H123c-4,0-7.3-3.3-7.3-7.3
		v-16.8C115.7,401.5,118.9,398.2,123,398.2z"/>
	<path id="elngorl1ax3xn" class="st6" d="M229.1,398.4c-12.2-6.2-48.4-10.7-91.2-10.7s-78.9,4.5-91.2,10.7h-4.4v4.6
		c0,8.5,42.8,15.4,95.6,15.4s95.6-6.9,95.6-15.4v-4.6H229.1z"/>
	<ellipse id="el5h292mpcvjh" class="st10" cx="137.9" cy="398.4" rx="95.6" ry="15.4"/>
	<path id="elfcr25ot956l" class="st10" d="M165.6,294.4c0,0-4.8-20.5-4.8-22.5s10.9-8.9,13.4-10.4s4.8,0.8,4.8,0.8
		c1,0.9,2.2,1.6,3.6,2c1.5,0.2,2.8,2,2.8,4s0.5,9.4,0.5,11.1s-2.8,3.8-4.3,3.8s-1.3-3-1.3-3c-0.6,0.5-1.3,0.8-2,1
		c-0.5,0-1,0.1-1.5,0.3c0,0,1,11.4-1,15.2c-1.2,2.1-2.1,4.3-2.8,6.6L136,381c0,0-6.1,11.4-14.2,11.7s-16-5.3-17-12.9
		s2.5-16.2,7.9-22.3S160.3,303.2,165.6,294.4z"/>
	<path id="el5erz73cn8ci" class="st10" d="M176.8,281.4v-5.3l5.5-0.1l-3,5.6C179.3,281.7,178.5,280.7,176.8,281.4z"/>
	<path id="el2ic4bgnypgr" class="st9" d="M182.6,264.2c0,0-11.1,5.1-12.9,6.6l-1.8,1.5"/>
	<path id="elzenurq91ks" class="st9" d="M179,262.2c0,0-11.4,5.6-14.9,8.6"/>
	<path id="elpoancat4mw" class="st9" d="M162.6,269l0.3-0.4c1.6-1.7,8.1-8.8,8.8-8.8s2.5,1.5,2.5,1.5L162.6,269z"/>
	<path id="eltg48ixy0quj" class="st8" d="M156.1,306.8c-14.4,17.5-39.5,46.1-43.5,50.7c-5.3,6.1-8.9,14.7-7.9,22.3s8.9,13.2,17,12.9
		S136,381,136,381l31.7-66.6C163.5,312.3,159.6,309.8,156.1,306.8z"/>
</g>
<g id="freepik--Mug--inject-7">
	<path id="elf72ao1rrgpv" class="st12" d="M75.7,334.7c-0.1,1.4,0.2,2.9,0.7,4.2c2.1,5.2,2.7,7.4,1.8,11.6"/>
	<path id="elx4glbl3m14" class="st12" d="M77.7,328.1c-0.6,1.1-1.1,2.3-1.5,3.5"/>
	<path id="elc762ib92kog" class="st12" d="M85.2,328.1c0,0-3.4,5.6-1.3,10.9s2.7,7.4,1.8,11.6"/>
	<path id="elq2df1s5dq" class="st12" d="M93.5,347.5c0,1-0.2,2.1-0.4,3.1"/>
	<path id="el44t6ws2xqip" class="st12" d="M92.6,328.1c0,0-3.4,5.6-1.3,10.9c0.7,1.5,1.2,3.1,1.7,4.7"/>
	<path id="el6v4ucygqvzi" class="st10" d="M99,361.8c0,0,3.4-3.5,6-0.6s1.6,16.9-0.6,21.3s-7.2,0.2-7.2,0.2v-3
		c1.4,1.2,3.5,1,4.7-0.3c0,0,0-0.1,0.1-0.1c2.5-2.5,1.8-12.4,0.9-14s-4.7,0.6-4.7,0.6L99,361.8z"/>
	<path id="elwmm4x7g6vqr" class="st10" d="M93,396H77.3c-2.3,0-4.1-1.7-4.3-4l-2.7-37.8H100L97.3,392C97.2,394.3,95.3,396,93,396z"
		/>
</g>
<g id="freepik--Device--inject-7">
	<path id="elmz9nc5stk7b" class="st10" d="M433.1,37.4h-49.9l0,0.2c-1.5,5.3-4.9,8.8-8.6,8.8h-2.2c-3.8,0-7.2-3.5-8.6-8.8l0-0.2
		h-49.9c-13.9,0-25.2,11.3-25.2,25.2c0,0,0,0,0,0v285c0,8,6.4,14.4,14.4,14.5h140.8c8,0,14.4-6.5,14.4-14.4v-285
		C458.3,48.7,447,37.4,433.1,37.4C433.1,37.4,433.1,37.4,433.1,37.4z"/>
	<path id="elx1fbqrqjdza" class="st13" d="M300.6,108.1v0.3h-1v-0.3c0-0.9-0.3-1.4-1.1-1.4s-1.1,0.5-1.1,1.4c0,2.2,3.3,2.4,3.3,5.2
		c0,1.5-0.7,2.5-2.2,2.5s-2.2-1-2.2-2.5v-0.6h1v0.6c0,0.9,0.4,1.4,1.1,1.4s1.1-0.5,1.1-1.4c0-2.2-3.3-2.4-3.3-5.2
		c0-1.5,0.7-2.5,2.2-2.5S300.6,106.6,300.6,108.1z"/>
	<path id="elf8p4odn2m4g" class="st13" d="M302.7,111.2v4.4h-1.1v-9.8h1.1v4.4h2.4v-4.4h1.1v9.8h-1.1v-4.4H302.7z"/>
	<path id="elmq740gysq4k" class="st13" d="M308.4,113.6l-0.4,2h-1l1.9-9.8h1.6l1.9,9.8h-1.1l-0.4-2H308.4z M308.6,112.6h2.2
		l-1.1-5.6L308.6,112.6z"/>
	<path id="elulkothdavfb" class="st13" d="M315.4,105.8c1.5,0,2.2,0.8,2.2,2.2v0.8c0,1.1-0.4,1.8-1.2,2c0.9,0.3,1.2,1,1.2,2.1v1.5
		c0,0.4,0,0.8,0.2,1.2h-1.1c-0.2-0.4-0.2-0.8-0.2-1.2v-1.6c0-1.1-0.5-1.5-1.4-1.5h-0.8v4.2h-1.1v-9.8L315.4,105.8z M315.2,110.4
		c0.9,0,1.4-0.3,1.4-1.3v-0.9c0-0.9-0.3-1.3-1.1-1.3h-1.1v3.6H315.2z"/>
	<path id="elhgzpf2ekqnf" class="st13" d="M322.3,110.1v1h-2.4v3.5h3v1h-4v-9.8h4v1h-3v3.4L322.3,110.1z"/>
	<path id="eluj156lnfeop" class="st13" d="M327.1,113.6l-0.4,2h-1l1.9-9.8h1.6l1.9,9.8H330l-0.4-2H327.1z M327.3,112.6h2.2l-1.1-5.6
		L327.3,112.6z"/>
	<path id="elhkklthpt32k" class="st13" d="M334.2,115.6v-9.8h1.1v8.8h2.8v1H334.2z"/>
	<path id="elsc4dmik15d" class="st13" d="M340,105.8v9.8h-1.1v-9.8H340z"/>
	<path id="eljf0mmfn2jn" class="st13" d="M342.1,115.6h-1v-9.8h1.4l2.3,7.1v-7.1h1v9.8h-1.1l-2.5-8L342.1,115.6z"/>
	<path id="elo0imgzi1ss9" class="st13" d="M348.6,111.3l-0.6,1v3.3h-1.1v-9.8h1.1v4.8l2.6-4.8h1.1l-2.5,4.5l2.6,5.4h-1.1
		L348.6,111.3z"/>
	<line id="elafpqc4d1kyq" class="st4" x1="295" y1="313.6" x2="450.1" y2="313.6"/>
	<g>
		<rect id="el0149fl5v4krz" x="294.3" y="272" class="st4" width="156.6" height="22.4"/>
	</g>
	<path id="ela5w30xx34j" class="st14" d="M458.3,83.2V62.5c0-13.9-11.3-25.2-25.2-25.2h-49.9l0,0.2c-1.5,5.3-4.9,8.8-8.6,8.8h-2.2
		c-3.8,0-7.2-3.5-8.6-8.8l0-0.2h-49.9c-13.9,0-25.2,11.3-25.2,25.2c0,0,0,0,0,0v20.7H458.3z"/>
	<rect id="elqr6zbj2plb" x="304.5" y="72.7" class="st10" width="56.7" height="6.8"/>
	<path id="el0rbepx6oa8rp" class="st10" d="M458.3,69.9v-7.3c0-13.9-11.3-25.2-25.2-25.2h-49.9l0,0.2c-1.5,5.3-4.9,8.8-8.6,8.8h-2.2
		c-3.8,0-7.2-3.5-8.6-8.8l0-0.2h-49.9c-13.9,0-25.2,11.3-25.2,25.2c0,0,0,0,0,0v7.3L458.3,69.9z"/>
	<path id="el94m0qk4djvf" class="st15" d="M469.1,129.5V97.6h-2.9V56.8c0-13.9-11.3-25.2-25.2-25.2c0,0,0,0,0,0H305.8
		c-13.9,0-25.2,11.3-25.2,25.1c0,0,0,0,0,0v294.4c0,13.9,11.3,25.2,25.1,25.2c0,0,0,0,0,0H441c13.9,0,25.2-11.3,25.2-25.2v0V156.7
		h2.9v-18.8h-2.9v-8.3L469.1,129.5z M458.3,333.3c0,13.9-11.3,25.2-25.2,25.2c0,0,0,0,0,0H313.7c-13.9,0-25.2-11.3-25.2-25.1
		c0,0,0,0,0,0V62.5c0-13.9,11.3-25.2,25.1-25.2c0,0,0,0,0,0h49.9l0,0.2c1.5,5.3,4.9,8.8,8.6,8.8h2.2c3.8,0,7.2-3.5,8.6-8.8l0-0.2
		h49.9c13.9,0,25.2,11.3,25.2,25.2c0,0,0,0,0,0L458.3,333.3z"/>
	<path id="elmzpxa54m90h" class="st6" d="M436.6,35.1H310.2c-14.7,0-26.7,11.9-26.7,26.7v284.5c0,14.7,11.9,26.7,26.7,26.7l0,0
		h126.4c14.7,0,26.7-11.9,26.7-26.6c0,0,0,0,0,0V61.8C463.3,47,451.3,35.1,436.6,35.1C436.6,35.1,436.6,35.1,436.6,35.1z
		 M458.3,333.3c0,13.9-11.3,25.2-25.2,25.2c0,0,0,0,0,0H313.7c-13.9,0-25.2-11.3-25.2-25.1c0,0,0,0,0,0V62.5
		c0-13.9,11.3-25.2,25.1-25.2c0,0,0,0,0,0h49.9l0,0.2c1.5,5.3,4.9,8.8,8.6,8.8h2.2c3.8,0,7.2-3.5,8.6-8.8l0-0.2h49.9
		c13.9,0,25.2,11.3,25.2,25.2c0,0,0,0,0,0L458.3,333.3z"/>
	<path id="elel6errtcuyk" class="st16" d="M375.3,38.6c0-1.3-1.1-2.4-2.4-2.3c-1.3,0-2.4,1.1-2.3,2.4c0,1.3,1.1,2.3,2.4,2.3
		C374.2,41,375.3,39.9,375.3,38.6C375.3,38.6,375.3,38.6,375.3,38.6z"/>
	<path id="elcn9a6pvjiqo" class="st13" d="M303.7,47.6c0,2.4-2.7,3.2-2.7,5.1v0.1h2.6v0.8h-3.5V53c0-2.6,2.7-3,2.7-5.3
		c0-0.8-0.3-1.2-0.9-1.2s-0.9,0.5-0.9,1.2v0.7h-0.8v-0.7c0-1.2,0.5-2,1.8-2S303.7,46.4,303.7,47.6z"/>
	<path id="elf3ens35rfk5" class="st13" d="M308,47.6v0.2c0.1,0.7-0.3,1.4-1,1.6c0.7,0.3,1.1,0.9,1,1.7v0.6c0,1.2-0.6,2-1.8,2
		s-1.8-0.8-1.8-2v-0.5h0.8v0.6c0,0.7,0.3,1.2,0.9,1.2s0.9-0.4,0.9-1.2v-0.6c0-0.8-0.3-1.2-1-1.2h-0.5v-0.8h0.5c0.6,0,1-0.4,1-1.1
		v-0.4c0-0.8-0.3-1.2-0.9-1.2s-0.9,0.4-0.9,1.2V48h-0.8v-0.4c0-1.2,0.6-2,1.8-2S308,46.4,308,47.6z"/>
	<path id="elso0z4z23mye" class="st13" d="M309.7,48.2v1.1h-0.9v-1.1H309.7z M309.7,52.5v1.1h-0.9v-1.1H309.7z"/>
	<path id="ely5lo0ats0ti" class="st13" d="M311.5,48.9c0.2-0.4,0.7-0.7,1.2-0.7c1,0,1.5,0.7,1.5,1.9v1.5c0,1.2-0.6,2-1.8,2
		s-1.8-0.8-1.8-2v-0.5h0.8v0.6c0,0.7,0.3,1.2,0.9,1.2s0.9-0.4,0.9-1.2v-1.5c0-0.7-0.3-1.1-0.9-1.1c-0.5,0-0.9,0.3-0.9,0.8
		c0,0,0,0,0,0v0.2h-0.8l0.2-4.4h3.2v0.8h-2.3L311.5,48.9z"/>
	<path id="elh7ksb17yiaw" class="st13" d="M318.6,47.6v0.1h-0.8v-0.2c0-0.7-0.3-1.1-0.9-1.1s-1,0.4-1,1.3v1.8
		c0.2-0.5,0.7-0.9,1.3-0.8c1,0,1.5,0.7,1.5,1.9v1.2c0,1.2-0.6,2-1.8,2s-1.8-0.8-1.8-2v-4c0-1.2,0.6-2,1.8-2S318.6,46.4,318.6,47.6z
		 M315.8,50.6v1.2c0,0.7,0.3,1.2,0.9,1.2s0.9-0.4,0.9-1.2v-1.2c0-0.7-0.3-1.1-0.9-1.1S315.8,49.9,315.8,50.6L315.8,50.6z"/>
	<rect id="elyh5kbugmbo" x="402.9" y="48" class="st13" width="2.2" height="5.6"/>
	<rect id="elcqya13kf508" x="405.9" y="46.8" class="st13" width="2.2" height="6.7"/>
	<rect id="ellryf67r2ucq" x="408.9" y="46" class="st13" width="2.2" height="7.5"/>
	<rect id="elyjwdonym7v9" x="411.8" y="44.7" class="st13" width="2.2" height="8.9"/>
	<path id="elb4na9fm96yt" class="st13" d="M441.8,53.4h-13.4v-8.2h13.4V53.4z M429.1,52.7H441V46h-11.9V52.7z"/>
	<rect id="elof99948kfhk" x="430.2" y="46.8" class="st13" width="7.1" height="5.1"/>
	<rect id="el9f9m8qgwckq" x="441.3" y="48.3" class="st13" width="1.7" height="1.9"/>
	<path id="el2b4pwwpifqr" class="st13" d="M423.4,51.6c-0.1,0-0.2,0-0.3-0.1c-2.7-1.6-4.5-0.1-4.6,0c-0.2,0.2-0.5,0.1-0.7-0.1
		c-0.2-0.2-0.1-0.5,0-0.7c0.1-0.1,2.4-2.1,5.8-0.1c0.2,0.1,0.3,0.4,0.2,0.7C423.8,51.6,423.6,51.6,423.4,51.6z"/>
	<path id="elk4vfc7wzwmb" class="st13" d="M424.4,49.9c-0.1,0-0.2,0-0.3-0.1c-4-2.3-6.6-0.1-6.6-0.1c-0.2,0.2-0.5,0.1-0.7-0.1
		c-0.2-0.2-0.1-0.5,0-0.7c0,0,3.2-2.8,7.8-0.1c0.2,0.1,0.3,0.4,0.2,0.7C424.8,49.8,424.6,49.9,424.4,49.9L424.4,49.9z"/>
	<path id="elij5h0mhq919" class="st13" d="M425.4,48c-0.1,0-0.2,0-0.3-0.1c-5-3-8.3-0.2-8.5,0c-0.2,0.2-0.5,0.2-0.7,0c0,0,0,0,0,0
		c-0.2-0.2-0.2-0.5,0-0.7c0,0,4-3.4,9.6-0.1c0.2,0.1,0.3,0.4,0.2,0.7C425.6,48,425.5,48,425.4,48z"/>
	<path id="elqhzo7orkykh" class="st13" d="M421.9,52.5c0,0.7-0.6,1.3-1.2,1.3c-0.7,0-1.3-0.6-1.3-1.2s0.6-1.3,1.2-1.3c0,0,0,0,0,0
		C421.4,51.2,421.9,51.8,421.9,52.5z"/>
</g>
<g>
	<rect x="305" y="138.1" transform="matrix(0.7071 -0.7071 0.7071 0.7071 -14.9732 272.153)" class="st17" width="32" height="32"/>
</g>
<g>
	<rect x="305" y="204" transform="matrix(0.7071 -0.7071 0.7071 0.7071 -61.5523 291.4467)" class="st18" width="32" height="32"/>
</g>
<g>
	<defs>
		<path id="SVGID_1_" d="M373.3,176.7c0,0,0.1,0,0.2,0l22.5-22.5c0,0,0-0.1,0-0.2l-22.5-22.5c0,0-0.1,0-0.2,0l-22.5,22.5
			c0,0,0,0.1,0,0.2L373.3,176.7z"/>
	</defs>
	<clipPath id="SVGID_00000128475743394038168470000013713383396971529092_">
		<use xlink:href="#SVGID_1_"  style="overflow:visible;"/>
	</clipPath>
	
		<rect x="348.4" y="129.1" style="clip-path:url(#SVGID_00000128475743394038168470000013713383396971529092_);fill:#E9DECC;" width="51.4" height="52.7"/>
	
		<rect x="297.4" y="194.4" style="clip-path:url(#SVGID_00000128475743394038168470000013713383396971529092_);fill:#E9DECC;" width="51.4" height="52.7"/>
</g>
<g>
	<defs>
		<path id="SVGID_00000135678185674357351950000011977429028923722942_" d="M426.8,176.6c0,0,0.1,0,0.2,0l22.4-22.4c0,0,0-0.1,0-0.2
			l-22.4-22.4c0,0-0.1,0-0.2,0L404.4,154c0,0,0,0.1,0,0.2L426.8,176.6z"/>
	</defs>
	<clipPath id="SVGID_00000179603637843354382070000005641533970540312219_">
		<use xlink:href="#SVGID_00000135678185674357351950000011977429028923722942_"  style="overflow:visible;"/>
	</clipPath>
	
		<rect x="400.2" y="127.7" style="clip-path:url(#SVGID_00000179603637843354382070000005641533970540312219_);fill:#5E4E47;" width="51.4" height="52.7"/>
</g>
<g>
	<g>
		<defs>
			<path id="SVGID_00000121244555212435727210000001755496700718386097_" d="M373.3,242.5c0,0,0.1,0,0.2,0l22.5-22.5
				c0,0,0-0.1,0-0.2l-22.5-22.5c0,0-0.1,0-0.2,0l-22.5,22.5c0,0,0,0.1,0,0.2L373.3,242.5z"/>
		</defs>
		<clipPath id="SVGID_00000104674393558647926420000000211221010822329769_">
			<use xlink:href="#SVGID_00000121244555212435727210000001755496700718386097_"  style="overflow:visible;"/>
		</clipPath>
		
			<rect x="350" y="195.4" style="clip-path:url(#SVGID_00000104674393558647926420000000211221010822329769_);fill:#CFA984;" width="51.4" height="52.7"/>
	</g>
</g>
<g>
	<defs>
		<path id="SVGID_00000029022863328075289300000009298642386939795335_" d="M449.4,220.1c0,0,0-0.1,0-0.2l-22.5-22.5
			c0,0-0.1,0-0.2,0l-22.5,22.5c0,0,0,0.1,0,0.2l22.5,22.5c0,0,0.1,0,0.2,0L449.4,220.1z"/>
	</defs>
	<clipPath id="SVGID_00000143598344095673963360000011795880079488631724_">
		<use xlink:href="#SVGID_00000029022863328075289300000009298642386939795335_"  style="overflow:visible;"/>
	</clipPath>
	
		<rect x="399.9" y="195.4" style="clip-path:url(#SVGID_00000143598344095673963360000011795880079488631724_);fill:#AB8787;" width="51.4" height="52.7"/>
</g>
<g>
	
		<line id="el58sabe3gky6_00000008141195866354985670000012446312573144526986_" class="st4" x1="310.4" y1="182.6" x2="328.9" y2="182.6"/>
	
		<line id="el58sabe3gky6_00000063594787503519879440000013397943372498791349_" class="st4" x1="417.6" y1="182.6" x2="436.1" y2="182.6"/>
	
		<line id="el58sabe3gky6_00000096774793481735480330000002068224389987453326_" class="st4" x1="364" y1="182.6" x2="382.5" y2="182.6"/>
</g>
<g>
	
		<line id="el58sabe3gky6_00000039835633346396881260000000365612501935190427_" class="st4" x1="310.4" y1="249.8" x2="328.9" y2="249.8"/>
	
		<line id="el58sabe3gky6_00000054231550662574469790000003753376342650350981_" class="st4" x1="417.6" y1="249.8" x2="436.1" y2="249.8"/>
	
		<line id="el58sabe3gky6_00000015344334568052631840000010000397857865736078_" class="st4" x1="364" y1="249.8" x2="382.5" y2="249.8"/>
</g>
<g>
	<path class="st13" d="M298.3,288.3v-9.4h0.6v4.2h3.2v-4.2h0.6v9.4h-0.6v-4.6h-3.2v4.6H298.3z"/>
	<path class="st13" d="M305.9,288.3v-8.8h-2.5v-0.6h5.5v0.6h-2.5v8.8H305.9z"/>
	<path class="st13" d="M311.7,288.3v-8.8h-2.5v-0.6h5.5v0.6h-2.5v8.8H311.7z"/>
	<path class="st13" d="M315.5,288.3v-9.4h2.5c0.7,0,1.3,0.2,1.8,0.7s0.7,1.1,0.7,1.9s-0.2,1.4-0.7,1.9s-1,0.7-1.8,0.7h-1.9v4.2
		H315.5z M316.1,283.6h1.9c0.6,0,1-0.2,1.3-0.5c0.3-0.4,0.5-0.9,0.5-1.5c0-0.6-0.2-1.1-0.5-1.5c-0.3-0.4-0.8-0.5-1.3-0.5h-1.9V283.6
		z"/>
	<path class="st13" d="M323.5,288.5c-0.5,0-0.9-0.1-1.3-0.3c-0.4-0.2-0.7-0.5-0.9-1c-0.2-0.4-0.3-0.9-0.3-1.4h0.6
		c0,0.6,0.2,1.1,0.5,1.5c0.4,0.4,0.8,0.6,1.4,0.6c0.5,0,1-0.2,1.3-0.5s0.5-0.8,0.5-1.3c0-0.5-0.1-0.9-0.4-1.3
		c-0.2-0.4-0.6-0.6-1-0.8l-1.2-0.4c-0.5-0.2-0.9-0.5-1.2-0.9c-0.3-0.4-0.4-0.9-0.4-1.5c0-0.5,0.1-0.9,0.3-1.2
		c0.2-0.3,0.5-0.6,0.8-0.8c0.3-0.2,0.7-0.3,1.2-0.3s0.9,0.1,1.2,0.3c0.3,0.2,0.6,0.5,0.8,0.9c0.2,0.4,0.3,0.8,0.3,1.3h-0.6
		c0-0.6-0.2-1.1-0.5-1.4c-0.3-0.4-0.7-0.5-1.3-0.5c-0.5,0-0.9,0.2-1.2,0.5c-0.3,0.3-0.5,0.7-0.5,1.2c0,0.4,0.1,0.8,0.3,1.2
		s0.5,0.6,0.9,0.7l1.2,0.4c0.5,0.2,1,0.5,1.3,1c0.3,0.5,0.5,1,0.5,1.6c0,0.5-0.1,0.9-0.3,1.3c-0.2,0.4-0.5,0.7-0.8,0.9
		C324.5,288.4,324,288.5,323.5,288.5z"/>
	<path class="st13" d="M329.2,282c-0.3,0-0.5-0.1-0.6-0.3c-0.2-0.2-0.2-0.4-0.2-0.7c0-0.3,0.1-0.5,0.2-0.7c0.2-0.2,0.4-0.3,0.6-0.3
		c0.3,0,0.5,0.1,0.6,0.3c0.2,0.2,0.2,0.4,0.2,0.7c0,0.3-0.1,0.5-0.2,0.7C329.7,281.9,329.5,282,329.2,282z M329.2,287.4
		c-0.3,0-0.5-0.1-0.6-0.3c-0.2-0.2-0.2-0.4-0.2-0.7s0.1-0.5,0.2-0.7c0.2-0.2,0.4-0.3,0.6-0.3c0.3,0,0.5,0.1,0.6,0.3
		c0.2,0.2,0.2,0.4,0.2,0.7s-0.1,0.5-0.2,0.7C329.7,287.4,329.5,287.4,329.2,287.4z"/>
	<path class="st13" d="M330.9,289.8l4.1-12.1h0.6l-4.1,12.1H330.9z"/>
	<path class="st13" d="M334.9,289.8l4.1-12.1h0.6l-4.1,12.1H334.9z"/>
	<path class="st13" d="M344.2,288.5c-0.7,0-1.3-0.2-1.7-0.7s-0.6-1.1-0.6-1.9v-4.5c0-0.8,0.2-1.4,0.6-1.9s1-0.7,1.7-0.7
		c0.7,0,1.3,0.2,1.7,0.7c0.4,0.5,0.6,1.1,0.6,2H346c0-0.7-0.2-1.2-0.5-1.6c-0.3-0.4-0.8-0.6-1.3-0.6c-0.5,0-1,0.2-1.3,0.5
		c-0.3,0.4-0.5,0.8-0.5,1.5v4.5c0,0.6,0.2,1.1,0.5,1.5c0.3,0.4,0.7,0.5,1.3,0.5c0.6,0,1-0.2,1.3-0.6c0.3-0.4,0.5-0.9,0.5-1.6h0.6
		c0,0.8-0.2,1.5-0.6,2S344.9,288.5,344.2,288.5z"/>
	<path class="st13" d="M348.4,288.3v-9.4h4.5v0.6h-3.9v3.6h3.5v0.6h-3.5v4h3.9v0.6H348.4z"/>
	<path class="st13" d="M354.6,288.3v-9.4h2.4c0.7,0,1.3,0.2,1.8,0.7c0.4,0.5,0.7,1.1,0.7,1.9c0,0.7-0.2,1.2-0.5,1.7
		c-0.3,0.5-0.8,0.7-1.4,0.8l2,4.3h-0.7l-1.9-4.3h-1.7v4.3H354.6z M355.2,283.5h1.8c0.6,0,1-0.2,1.3-0.5c0.3-0.4,0.5-0.8,0.5-1.4
		c0-0.6-0.2-1.1-0.5-1.4s-0.8-0.5-1.3-0.5h-1.8V283.5z"/>
	<path class="st13" d="M360.4,288.3l2.3-9.4h0.7l2.3,9.4h-0.6l-0.6-2.7h-2.9l-0.6,2.7H360.4z M361.8,285.1h2.6l-0.9-3.8
		c-0.1-0.5-0.2-0.9-0.3-1.2c-0.1-0.3-0.1-0.5-0.1-0.6c0,0.1-0.1,0.3-0.1,0.6s-0.2,0.7-0.3,1.2L361.8,285.1z"/>
	<path class="st13" d="M367,288.3v-9.4h0.8l1.6,4.8l1.6-4.8h0.8v9.4h-0.6v-5.7c0-0.4,0-0.9,0-1.3c0-0.4,0-0.8,0-1.2s0-0.7,0-0.9
		l-1.6,4.9h-0.6l-1.6-4.9c0,0.2,0,0.5,0.1,0.9c0,0.4,0,0.8,0,1.2s0,0.9,0,1.3v5.7H367z"/>
	<path class="st13" d="M375.8,288.5c-0.7,0-1.2-0.2-1.6-0.7s-0.6-1.1-0.6-1.9v-4.5c0-0.8,0.2-1.4,0.6-1.9c0.4-0.5,1-0.7,1.6-0.7
		c0.7,0,1.2,0.2,1.6,0.7c0.4,0.5,0.6,1.1,0.6,1.9v4.5c0,0.8-0.2,1.4-0.6,1.9C377,288.2,376.5,288.5,375.8,288.5z M375.8,287.9
		c0.5,0,0.9-0.2,1.2-0.5c0.3-0.4,0.4-0.8,0.4-1.5v-4.5c0-0.6-0.1-1.1-0.4-1.5c-0.3-0.4-0.7-0.5-1.2-0.5c-0.5,0-0.9,0.2-1.2,0.5
		c-0.3,0.4-0.4,0.8-0.4,1.5v4.5c0,0.6,0.1,1.1,0.4,1.5C374.8,287.7,375.2,287.9,375.8,287.9z"/>
	<path class="st13" d="M379.7,288.3v-0.6l4.1-8.2h-4.1v-0.6h4.6v0.7l-4.1,8.1h4.2v0.6H379.7z"/>
	<path class="st13" d="M385.8,288.3l2.3-9.4h0.7l2.3,9.4h-0.6l-0.6-2.7H387l-0.6,2.7H385.8z M387.1,285.1h2.6l-0.9-3.8
		c-0.1-0.5-0.2-0.9-0.3-1.2c-0.1-0.3-0.1-0.5-0.1-0.6c0,0.1-0.1,0.3-0.1,0.6s-0.2,0.7-0.3,1.2L387.1,285.1z"/>
	<path class="st13" d="M393.6,288.5c-0.2,0-0.4-0.1-0.6-0.3c-0.2-0.2-0.2-0.4-0.2-0.7c0-0.3,0.1-0.5,0.2-0.7
		c0.2-0.2,0.4-0.3,0.6-0.3c0.2,0,0.4,0.1,0.6,0.3s0.2,0.4,0.2,0.7c0,0.3-0.1,0.5-0.2,0.7C394.1,288.4,393.9,288.5,393.6,288.5z"/>
	<path class="st13" d="M398.9,288.5c-0.7,0-1.3-0.2-1.7-0.7s-0.6-1.1-0.6-1.9v-4.5c0-0.8,0.2-1.4,0.6-1.9s1-0.7,1.7-0.7
		c0.7,0,1.3,0.2,1.7,0.7c0.4,0.5,0.6,1.1,0.6,2h-0.6c0-0.7-0.2-1.2-0.5-1.6c-0.3-0.4-0.8-0.6-1.3-0.6c-0.5,0-1,0.2-1.3,0.5
		c-0.3,0.4-0.5,0.8-0.5,1.5v4.5c0,0.6,0.2,1.1,0.5,1.5c0.3,0.4,0.7,0.5,1.3,0.5c0.6,0,1-0.2,1.3-0.6c0.3-0.4,0.5-0.9,0.5-1.6h0.6
		c0,0.8-0.2,1.5-0.6,2S399.6,288.5,398.9,288.5z"/>
	<path class="st13" d="M405.1,288.5c-0.7,0-1.2-0.2-1.6-0.7s-0.6-1.1-0.6-1.9v-4.5c0-0.8,0.2-1.4,0.6-1.9c0.4-0.5,1-0.7,1.6-0.7
		c0.7,0,1.2,0.2,1.6,0.7c0.4,0.5,0.6,1.1,0.6,1.9v4.5c0,0.8-0.2,1.4-0.6,1.9C406.4,288.2,405.8,288.5,405.1,288.5z M405.1,287.9
		c0.5,0,0.9-0.2,1.2-0.5c0.3-0.4,0.4-0.8,0.4-1.5v-4.5c0-0.6-0.1-1.1-0.4-1.5c-0.3-0.4-0.7-0.5-1.2-0.5c-0.5,0-0.9,0.2-1.2,0.5
		c-0.3,0.4-0.4,0.8-0.4,1.5v4.5c0,0.6,0.1,1.1,0.4,1.5C404.2,287.7,404.6,287.9,405.1,287.9z"/>
	<path class="st13" d="M409.1,288.3v-9.4h0.8l1.6,4.8l1.6-4.8h0.8v9.4h-0.6v-5.7c0-0.4,0-0.9,0-1.3c0-0.4,0-0.8,0-1.2s0-0.7,0-0.9
		l-1.6,4.9h-0.6l-1.6-4.9c0,0.2,0,0.5,0.1,0.9c0,0.4,0,0.8,0,1.2s0,0.9,0,1.3v5.7H409.1z"/>
	<path class="st13" d="M417.2,289.8l4.1-12.1h0.6l-4.1,12.1H417.2z"/>
</g>
<g class="st23">
	<path d="M431.8,285.2v1.3c0,1.6-0.8,2.5-2.3,2.5c-1.5,0-2.3-0.9-2.3-2.5v-5.1c0-1.6,0.8-2.5,2.3-2.5c1.5,0,2.3,0.9,2.3,2.5v1h-1.5
		v-1.1c0-0.7-0.3-1-0.8-1s-0.8,0.3-0.8,1v5.3c0,0.7,0.3,1,0.8,1s0.8-0.3,0.8-1v-1.4H431.8z"/>
	<path d="M432.6,281.4c0-1.6,0.8-2.5,2.4-2.5c1.5,0,2.4,0.9,2.4,2.5v5.1c0,1.6-0.8,2.5-2.4,2.5c-1.5,0-2.4-0.9-2.4-2.5V281.4z
		 M434.2,286.6c0,0.7,0.3,1,0.8,1s0.8-0.3,0.8-1v-5.3c0-0.7-0.3-1-0.8-1s-0.8,0.3-0.8,1V286.6z"/>
</g>
<g class="st23">
	<path d="M442.7,281.4v1.3c0,1.6-0.8,2.4-2.3,2.4h-0.7v3.7h-1.5V279h2.3C442,279,442.7,279.8,442.7,281.4z M439.7,280.4v3.3h0.7
		c0.5,0,0.8-0.2,0.8-0.9v-1.5c0-0.7-0.3-0.9-0.8-0.9H439.7z"/>
</g>
<g class="st23">
	<path d="M444.8,285.6l-2-6.6h1.6l1.2,4.5l1.2-4.5h1.5l-2,6.6v3.3h-1.5V285.6z"/>
</g>
</svg>
